M48
; DRILL file {KiCad (5.1.4)-1} date 18.11.2019 10:56:33
; FORMAT={-:-/ absolute / metric / decimal}
; #@! TF.CreationDate,2019-11-18T10:56:33+03:00
; #@! TF.GenerationSoftware,Kicad,Pcbnew,(5.1.4)-1
FMAT,2
METRIC
T1C0.300
T2C0.400
T3C0.800
T4C0.900
T5C0.950
T6C1.000
T7C1.016
T8C1.200
T9C1.300
T10C1.000
%
G90
G05
T1
X34.198Y-70.717
X34.198Y-71.917
X34.198Y-73.217
X34.198Y-74.317
X35.398Y-70.717
X35.398Y-71.917
X35.398Y-73.217
X35.398Y-74.317
T2
X23.622Y-79.248
X28.956Y-83.439
X29.083Y-39.878
X29.21Y-30.353
X29.591Y-53.086
X29.591Y-62.23
X30.162Y-78.613
X31.623Y-33.274
X32.766Y-75.692
X32.829Y-53.149
X33.352Y-25.88
X33.452Y-16.38
X33.528Y-52.451
X33.655Y-59.817
X34.036Y-44.577
X34.036Y-48.387
X34.227Y-51.752
X36.005Y-48.831
X36.052Y-16.38
X36.322Y-31.877
X36.952Y-27.78
X37.338Y-42.672
X37.338Y-45.212
X37.465Y-66.358
X37.592Y-59.817
X38.1Y-18.796
X38.354Y-26.543
X38.608Y-47.117
X39.243Y-40.386
X39.751Y-28.488
X39.751Y-30.088
X40.005Y-54.737
X41.656Y-21.59
X41.783Y-47.498
X41.91Y-52.578
X42.545Y-19.177
X42.558Y-23.241
X43.18Y-31.623
X43.18Y-43.942
X43.18Y-52.578
X43.307Y-38.481
X43.688Y-28.575
X44.196Y-31.623
X44.196Y-62.738
X44.386Y-46.038
X44.386Y-48.831
X44.45Y-52.578
X44.45Y-59.436
X44.958Y-21.844
X45.212Y-20.757
X45.339Y-41.148
X45.974Y-55.118
X45.974Y-59.436
X46.101Y-21.407
X46.609Y-64.389
X46.609Y-67.691
X46.736Y-31.305
X47.117Y-41.148
X47.358Y-26.035
X47.498Y-53.594
X47.498Y-59.436
X48.641Y-18.669
X48.895Y-22.479
X49.048Y-50.673
X49.052Y-44.38
X49.052Y-48.98
X49.052Y-52.48
X49.149Y-17.78
X49.149Y-65.278
X49.276Y-32.893
X49.784Y-69.342
X49.784Y-72.263
X50.085Y-50.673
X50.085Y-55.118
X50.085Y-59.436
X50.514Y-41.122
X50.886Y-18.034
X51.046Y-31.876
X51.052Y-52.18
X51.054Y-27.686
X51.152Y-46.08
X51.152Y-49.08
X51.181Y-50.673
X51.308Y-53.721
X51.308Y-67.056
X51.996Y-18.05
X52.451Y-42.545
X52.451Y-53.721
X53.086Y-33.401
X53.086Y-34.417
X53.086Y-38.227
X53.594Y-54.102
X53.594Y-59.436
X54.61Y-55.118
X55.118Y-18.034
X55.352Y-48.98
X56.007Y-34.417
X56.134Y-37.465
X56.134Y-54.102
X57.452Y-48.38
X57.531Y-16.383
X57.652Y-18.48
X57.785Y-39.751
X57.785Y-44.45
X57.785Y-45.593
X57.852Y-38.28
X57.852Y-41.28
X57.912Y-43.18
X58.801Y-51.054
X59.436Y-35.433
X59.436Y-36.703
X59.436Y-37.973
X59.436Y-67.056
X59.817Y-73.279
X60.652Y-54.18
X61.214Y-47.371
X61.595Y-64.389
X62.611Y-39.243
X62.611Y-40.513
X62.611Y-41.783
X63.352Y-45.38
X64.052Y-50.58
X64.262Y-73.279
X65.152Y-44.68
X65.278Y-76.835
X65.532Y-82.423
X66.294Y-61.087
X66.675Y-36.068
X67.352Y-54.08
X68.452Y-48.08
X68.452Y-50.58
X68.58Y-62.865
X68.834Y-15.621
X68.834Y-22.098
X69.85Y-38.481
X71.247Y-28.194
X73.66Y-62.23
X73.787Y-64.897
X74.041Y-28.194
X74.295Y-22.225
X74.93Y-15.494
X75.565Y-56.896
X75.819Y-52.832
T3
X43.815Y-77.47
X43.815Y-80.01
X43.815Y-82.55
T4
X31.396Y-82.423
X33.936Y-82.423
X36.396Y-82.423
X38.936Y-82.423
T5
X69.266Y-18.542
X71.766Y-18.542
X74.266Y-18.542
X69.266Y-25.019
X71.766Y-25.019
X74.266Y-25.019
X67.056Y-32.258
X69.556Y-32.258
X72.056Y-32.258
X74.556Y-32.258
T6
X72.39Y-70.866
X73.64Y-68.701
X59.944Y-77.597
X59.944Y-80.137
X59.944Y-82.677
X62.484Y-77.597
X62.484Y-80.137
X62.484Y-82.677
X65.044Y-68.967
X66.294Y-66.802
X67.945Y-78.486
X69.195Y-76.321
X41.021Y-16.383
X43.561Y-16.383
X46.101Y-16.383
X48.641Y-16.383
X51.181Y-16.383
X19.471Y-57.658
X21.971Y-57.658
X19.431Y-64.643
X21.931Y-64.643
X62.611Y-30.353
X62.611Y-32.893
X62.611Y-35.433
T7
X70.231Y-40.894
X70.231Y-43.434
X70.231Y-45.974
X70.231Y-48.514
X70.231Y-51.054
X70.231Y-53.594
X70.231Y-56.134
X70.231Y-58.674
X72.771Y-40.894
X72.771Y-43.434
X72.771Y-45.974
X72.771Y-48.514
X72.771Y-51.054
X72.771Y-53.594
X72.771Y-56.134
X72.771Y-58.674
T8
X21.336Y-28.448
X21.336Y-32.258
X21.336Y-38.608
X21.336Y-42.418
X21.336Y-46.228
X21.336Y-50.038
X21.336Y-18.288
X21.336Y-22.098
T9
X22.733Y-69.676
X22.733Y-74.676
T10
X49.992Y-78.938
X54.392Y-78.938
T0
M30
