G04 #@! TF.GenerationSoftware,KiCad,Pcbnew,(5.1.0-1252-g029b624e9)*
G04 #@! TF.CreationDate,2019-07-23T23:54:41+03:00*
G04 #@! TF.ProjectId,123,3132332e-6b69-4636-9164-5f7063625858,rev?*
G04 #@! TF.SameCoordinates,Original*
G04 #@! TF.FileFunction,Legend,Top*
G04 #@! TF.FilePolarity,Positive*
%FSLAX46Y46*%
G04 Gerber Fmt 4.6, Leading zero omitted, Abs format (unit mm)*
G04 Created by KiCad (PCBNEW (5.1.0-1252-g029b624e9)) date 2019-07-23 23:54:41*
%MOMM*%
%LPD*%
G04 APERTURE LIST*
%ADD10C,0.150000*%
%ADD11C,0.120000*%
%ADD12C,0.100000*%
G04 APERTURE END LIST*
D10*
X58867753Y-77892525D02*
X58866053Y-78368712D01*
X59342070Y-78418032D01*
X59294621Y-78370243D01*
X59247343Y-78274835D01*
X59248193Y-78036742D01*
X59296152Y-77941674D01*
X59343941Y-77894225D01*
X59439348Y-77846947D01*
X59677442Y-77847797D01*
X59772509Y-77895756D01*
X59819958Y-77943545D01*
X59867237Y-78038952D01*
X59866386Y-78277046D01*
X59818427Y-78372114D01*
X59770639Y-78419562D01*
X58870985Y-76987769D02*
X58870304Y-77178244D01*
X58917583Y-77273651D01*
X58965032Y-77321440D01*
X59107548Y-77417188D01*
X59297853Y-77465487D01*
X59678803Y-77466847D01*
X59774210Y-77419569D01*
X59821999Y-77372120D01*
X59869958Y-77277053D01*
X59870638Y-77086578D01*
X59823359Y-76991170D01*
X59775911Y-76943381D01*
X59680843Y-76895422D01*
X59442750Y-76894572D01*
X59347342Y-76941851D01*
X59299553Y-76989299D01*
X59251594Y-77084367D01*
X59250914Y-77274842D01*
X59298193Y-77370249D01*
X59345641Y-77418038D01*
X59440709Y-77465997D01*
X59825400Y-76419745D02*
X59873019Y-76419915D01*
X59968086Y-76467874D01*
X60015535Y-76515663D01*
X58875236Y-75797300D02*
X58875576Y-75702063D01*
X58923535Y-75606995D01*
X58971324Y-75559546D01*
X59066732Y-75512268D01*
X59257377Y-75465329D01*
X59495470Y-75466180D01*
X59685775Y-75514479D01*
X59780843Y-75562438D01*
X59828291Y-75610226D01*
X59875570Y-75705634D01*
X59875230Y-75800871D01*
X59827271Y-75895939D01*
X59779482Y-75943388D01*
X59684075Y-75990666D01*
X59493430Y-76037605D01*
X59255336Y-76036754D01*
X59065031Y-75988455D01*
X58969963Y-75940496D01*
X58922515Y-75892708D01*
X58875236Y-75797300D01*
X58878638Y-74844925D02*
X58878978Y-74749688D01*
X58926937Y-74654620D01*
X58974725Y-74607172D01*
X59070133Y-74559893D01*
X59260778Y-74512955D01*
X59498872Y-74513805D01*
X59689177Y-74562104D01*
X59784244Y-74610063D01*
X59831693Y-74657852D01*
X59878971Y-74753259D01*
X59878631Y-74848497D01*
X59830672Y-74943564D01*
X59782883Y-74991013D01*
X59687476Y-75038291D01*
X59496831Y-75085230D01*
X59258737Y-75084379D01*
X59068432Y-75036080D01*
X58973365Y-74988122D01*
X58925916Y-74940333D01*
X58878638Y-74844925D01*
X58882039Y-73892550D02*
X58882379Y-73797313D01*
X58930338Y-73702245D01*
X58978127Y-73654797D01*
X59073534Y-73607518D01*
X59264179Y-73560580D01*
X59502273Y-73561430D01*
X59692578Y-73609729D01*
X59787645Y-73657688D01*
X59835094Y-73705477D01*
X59882373Y-73800884D01*
X59882033Y-73896122D01*
X59834074Y-73991189D01*
X59786285Y-74038638D01*
X59690877Y-74085916D01*
X59500232Y-74132855D01*
X59262138Y-74132005D01*
X59071834Y-74083706D01*
X58976766Y-74035747D01*
X58929317Y-73987958D01*
X58882039Y-73892550D01*
X59887475Y-72372322D02*
X59220812Y-72369941D01*
X59745639Y-72086099D01*
X59222853Y-71798516D01*
X59889515Y-71800897D01*
X59891216Y-71324710D02*
X59224554Y-71322329D01*
X59749380Y-71038487D01*
X59226595Y-70750904D01*
X59893257Y-70753285D01*
D11*
X60797266Y-46565705D02*
X60597266Y-102565705D01*
X70400000Y-46600000D02*
X60210849Y-46563610D01*
X70200000Y-102600000D02*
X60010849Y-102563610D01*
X60597266Y-102565705D02*
X60014872Y-101437114D01*
X60597266Y-102565705D02*
X61187706Y-101441303D01*
X60797266Y-46565705D02*
X60206826Y-47690107D01*
X60797266Y-46565705D02*
X61379660Y-47694296D01*
D10*
X98514047Y-40582380D02*
X98323571Y-40582380D01*
X98228333Y-40630000D01*
X98180714Y-40677619D01*
X98085476Y-40820476D01*
X98037857Y-41010952D01*
X98037857Y-41391904D01*
X98085476Y-41487142D01*
X98133095Y-41534761D01*
X98228333Y-41582380D01*
X98418809Y-41582380D01*
X98514047Y-41534761D01*
X98561666Y-41487142D01*
X98609285Y-41391904D01*
X98609285Y-41153809D01*
X98561666Y-41058571D01*
X98514047Y-41010952D01*
X98418809Y-40963333D01*
X98228333Y-40963333D01*
X98133095Y-41010952D01*
X98085476Y-41058571D01*
X98037857Y-41153809D01*
X98942619Y-40582380D02*
X99561666Y-40582380D01*
X99228333Y-40963333D01*
X99371190Y-40963333D01*
X99466428Y-41010952D01*
X99514047Y-41058571D01*
X99561666Y-41153809D01*
X99561666Y-41391904D01*
X99514047Y-41487142D01*
X99466428Y-41534761D01*
X99371190Y-41582380D01*
X99085476Y-41582380D01*
X98990238Y-41534761D01*
X98942619Y-41487142D01*
X100037857Y-41534761D02*
X100037857Y-41582380D01*
X99990238Y-41677619D01*
X99942619Y-41725238D01*
X100656904Y-40582380D02*
X100752142Y-40582380D01*
X100847380Y-40630000D01*
X100895000Y-40677619D01*
X100942619Y-40772857D01*
X100990238Y-40963333D01*
X100990238Y-41201428D01*
X100942619Y-41391904D01*
X100895000Y-41487142D01*
X100847380Y-41534761D01*
X100752142Y-41582380D01*
X100656904Y-41582380D01*
X100561666Y-41534761D01*
X100514047Y-41487142D01*
X100466428Y-41391904D01*
X100418809Y-41201428D01*
X100418809Y-40963333D01*
X100466428Y-40772857D01*
X100514047Y-40677619D01*
X100561666Y-40630000D01*
X100656904Y-40582380D01*
X101609285Y-40582380D02*
X101704523Y-40582380D01*
X101799761Y-40630000D01*
X101847380Y-40677619D01*
X101895000Y-40772857D01*
X101942619Y-40963333D01*
X101942619Y-41201428D01*
X101895000Y-41391904D01*
X101847380Y-41487142D01*
X101799761Y-41534761D01*
X101704523Y-41582380D01*
X101609285Y-41582380D01*
X101514047Y-41534761D01*
X101466428Y-41487142D01*
X101418809Y-41391904D01*
X101371190Y-41201428D01*
X101371190Y-40963333D01*
X101418809Y-40772857D01*
X101466428Y-40677619D01*
X101514047Y-40630000D01*
X101609285Y-40582380D01*
X102561666Y-40582380D02*
X102656904Y-40582380D01*
X102752142Y-40630000D01*
X102799761Y-40677619D01*
X102847380Y-40772857D01*
X102895000Y-40963333D01*
X102895000Y-41201428D01*
X102847380Y-41391904D01*
X102799761Y-41487142D01*
X102752142Y-41534761D01*
X102656904Y-41582380D01*
X102561666Y-41582380D01*
X102466428Y-41534761D01*
X102418809Y-41487142D01*
X102371190Y-41391904D01*
X102323571Y-41201428D01*
X102323571Y-40963333D01*
X102371190Y-40772857D01*
X102418809Y-40677619D01*
X102466428Y-40630000D01*
X102561666Y-40582380D01*
X104085476Y-41582380D02*
X104085476Y-40915714D01*
X104371190Y-41439523D01*
X104656904Y-40915714D01*
X104656904Y-41582380D01*
X105133095Y-41582380D02*
X105133095Y-40915714D01*
X105418809Y-41439523D01*
X105704523Y-40915714D01*
X105704523Y-41582380D01*
D11*
X133395000Y-42400000D02*
X70395000Y-42400000D01*
X133395000Y-46590000D02*
X133395000Y-41813579D01*
X70395000Y-46590000D02*
X70395000Y-41813579D01*
X70395000Y-42400000D02*
X71521504Y-41813579D01*
X70395000Y-42400000D02*
X71521504Y-42986421D01*
X133395000Y-42400000D02*
X132268496Y-41813579D01*
X133395000Y-42400000D02*
X132268496Y-42986421D01*
D12*
G36*
X82804000Y-87630000D02*
G01*
X81153000Y-86995000D01*
X82804000Y-86360000D01*
X82804000Y-87630000D01*
G37*
X82804000Y-87630000D02*
X81153000Y-86995000D01*
X82804000Y-86360000D01*
X82804000Y-87630000D01*
D11*
X126007000Y-97904000D02*
X122507000Y-97904000D01*
X122507000Y-93104000D02*
X122507000Y-97904000D01*
X126007000Y-93104000D02*
X126007000Y-97904000D01*
X126007000Y-93104000D02*
X122507000Y-93104000D01*
X85000692Y-95608526D02*
G75*
G03X85000692Y-95608526I-3620000J0D01*
G01*
X86915000Y-69235000D02*
X80945000Y-69235000D01*
X80945000Y-69235000D02*
X80945000Y-76855000D01*
X80945000Y-76855000D02*
X86915000Y-76855000D01*
X86915000Y-76855000D02*
X86915000Y-69235000D01*
X86905000Y-72545000D02*
X86155000Y-72545000D01*
X86155000Y-72545000D02*
X86155000Y-73545000D01*
X86155000Y-73545000D02*
X86905000Y-73545000D01*
X86905000Y-73545000D02*
X86905000Y-72545000D01*
X86905000Y-69245000D02*
X86155000Y-69245000D01*
X86155000Y-69245000D02*
X86155000Y-71045000D01*
X86155000Y-71045000D02*
X86905000Y-71045000D01*
X86905000Y-71045000D02*
X86905000Y-69245000D01*
X86905000Y-75045000D02*
X86155000Y-75045000D01*
X86155000Y-75045000D02*
X86155000Y-76845000D01*
X86155000Y-76845000D02*
X86905000Y-76845000D01*
X86905000Y-76845000D02*
X86905000Y-75045000D01*
X84655000Y-69245000D02*
X84655000Y-69995000D01*
X84655000Y-69995000D02*
X81705000Y-69995000D01*
X81705000Y-69995000D02*
X81705000Y-73045000D01*
X84655000Y-76845000D02*
X84655000Y-76095000D01*
X84655000Y-76095000D02*
X81705000Y-76095000D01*
X81705000Y-76095000D02*
X81705000Y-73045000D01*
X87205000Y-70195000D02*
X87205000Y-68945000D01*
X87205000Y-68945000D02*
X85955000Y-68945000D01*
X86915000Y-60980000D02*
X80945000Y-60980000D01*
X80945000Y-60980000D02*
X80945000Y-68600000D01*
X80945000Y-68600000D02*
X86915000Y-68600000D01*
X86915000Y-68600000D02*
X86915000Y-60980000D01*
X86905000Y-64290000D02*
X86155000Y-64290000D01*
X86155000Y-64290000D02*
X86155000Y-65290000D01*
X86155000Y-65290000D02*
X86905000Y-65290000D01*
X86905000Y-65290000D02*
X86905000Y-64290000D01*
X86905000Y-60990000D02*
X86155000Y-60990000D01*
X86155000Y-60990000D02*
X86155000Y-62790000D01*
X86155000Y-62790000D02*
X86905000Y-62790000D01*
X86905000Y-62790000D02*
X86905000Y-60990000D01*
X86905000Y-66790000D02*
X86155000Y-66790000D01*
X86155000Y-66790000D02*
X86155000Y-68590000D01*
X86155000Y-68590000D02*
X86905000Y-68590000D01*
X86905000Y-68590000D02*
X86905000Y-66790000D01*
X84655000Y-60990000D02*
X84655000Y-61740000D01*
X84655000Y-61740000D02*
X81705000Y-61740000D01*
X81705000Y-61740000D02*
X81705000Y-64790000D01*
X84655000Y-68590000D02*
X84655000Y-67840000D01*
X84655000Y-67840000D02*
X81705000Y-67840000D01*
X81705000Y-67840000D02*
X81705000Y-64790000D01*
X87205000Y-61940000D02*
X87205000Y-60690000D01*
X87205000Y-60690000D02*
X85955000Y-60690000D01*
X79084845Y-53225353D02*
G75*
G03X79085000Y-54725000I1700155J-749647D01*
G01*
X79084845Y-49415353D02*
G75*
G03X79085000Y-50915000I1700155J-749647D01*
G01*
X72475000Y-56685000D02*
X79945000Y-56685000D01*
X79945000Y-56685000D02*
X79945000Y-47455000D01*
X79945000Y-47455000D02*
X72475000Y-47455000D01*
X72475000Y-47455000D02*
X72475000Y-56685000D01*
X79085000Y-54725000D02*
X79085000Y-55475000D01*
X79085000Y-55475000D02*
X74785000Y-55475000D01*
X74785000Y-55475000D02*
X74785000Y-54725000D01*
X74785000Y-54725000D02*
X74435000Y-54725000D01*
X74435000Y-54725000D02*
X74435000Y-55225000D01*
X74435000Y-55225000D02*
X73435000Y-55475000D01*
X73435000Y-55475000D02*
X73435000Y-52475000D01*
X73435000Y-52475000D02*
X74435000Y-52725000D01*
X74435000Y-52725000D02*
X74435000Y-53225000D01*
X74435000Y-53225000D02*
X74785000Y-53225000D01*
X74785000Y-53225000D02*
X74785000Y-52475000D01*
X74785000Y-52475000D02*
X79085000Y-52475000D01*
X79085000Y-52475000D02*
X79085000Y-53225000D01*
X79085000Y-50915000D02*
X79085000Y-51665000D01*
X79085000Y-51665000D02*
X74785000Y-51665000D01*
X74785000Y-51665000D02*
X74785000Y-50915000D01*
X74785000Y-50915000D02*
X74435000Y-50915000D01*
X74435000Y-50915000D02*
X74435000Y-51415000D01*
X74435000Y-51415000D02*
X73435000Y-51665000D01*
X73435000Y-51665000D02*
X73435000Y-48665000D01*
X73435000Y-48665000D02*
X74435000Y-48915000D01*
X74435000Y-48915000D02*
X74435000Y-49415000D01*
X74435000Y-49415000D02*
X74785000Y-49415000D01*
X74785000Y-49415000D02*
X74785000Y-48665000D01*
X74785000Y-48665000D02*
X79085000Y-48665000D01*
X79085000Y-48665000D02*
X79085000Y-49415000D01*
X73335000Y-57075000D02*
X72085000Y-57075000D01*
X72085000Y-57075000D02*
X72085000Y-55075000D01*
X79084845Y-63385353D02*
G75*
G03X79085000Y-64885000I1700155J-749647D01*
G01*
X79084845Y-59575353D02*
G75*
G03X79085000Y-61075000I1700155J-749647D01*
G01*
X72475000Y-66845000D02*
X79945000Y-66845000D01*
X79945000Y-66845000D02*
X79945000Y-57615000D01*
X79945000Y-57615000D02*
X72475000Y-57615000D01*
X72475000Y-57615000D02*
X72475000Y-66845000D01*
X79085000Y-64885000D02*
X79085000Y-65635000D01*
X79085000Y-65635000D02*
X74785000Y-65635000D01*
X74785000Y-65635000D02*
X74785000Y-64885000D01*
X74785000Y-64885000D02*
X74435000Y-64885000D01*
X74435000Y-64885000D02*
X74435000Y-65385000D01*
X74435000Y-65385000D02*
X73435000Y-65635000D01*
X73435000Y-65635000D02*
X73435000Y-62635000D01*
X73435000Y-62635000D02*
X74435000Y-62885000D01*
X74435000Y-62885000D02*
X74435000Y-63385000D01*
X74435000Y-63385000D02*
X74785000Y-63385000D01*
X74785000Y-63385000D02*
X74785000Y-62635000D01*
X74785000Y-62635000D02*
X79085000Y-62635000D01*
X79085000Y-62635000D02*
X79085000Y-63385000D01*
X79085000Y-61075000D02*
X79085000Y-61825000D01*
X79085000Y-61825000D02*
X74785000Y-61825000D01*
X74785000Y-61825000D02*
X74785000Y-61075000D01*
X74785000Y-61075000D02*
X74435000Y-61075000D01*
X74435000Y-61075000D02*
X74435000Y-61575000D01*
X74435000Y-61575000D02*
X73435000Y-61825000D01*
X73435000Y-61825000D02*
X73435000Y-58825000D01*
X73435000Y-58825000D02*
X74435000Y-59075000D01*
X74435000Y-59075000D02*
X74435000Y-59575000D01*
X74435000Y-59575000D02*
X74785000Y-59575000D01*
X74785000Y-59575000D02*
X74785000Y-58825000D01*
X74785000Y-58825000D02*
X79085000Y-58825000D01*
X79085000Y-58825000D02*
X79085000Y-59575000D01*
X73335000Y-67235000D02*
X72085000Y-67235000D01*
X72085000Y-67235000D02*
X72085000Y-65235000D01*
X79084845Y-81165353D02*
G75*
G03X79085000Y-82665000I1700155J-749647D01*
G01*
X79084845Y-77355353D02*
G75*
G03X79085000Y-78855000I1700155J-749647D01*
G01*
X79084845Y-73545353D02*
G75*
G03X79085000Y-75045000I1700155J-749647D01*
G01*
X79084845Y-69735353D02*
G75*
G03X79085000Y-71235000I1700155J-749647D01*
G01*
X72475000Y-84625000D02*
X79945000Y-84625000D01*
X79945000Y-84625000D02*
X79945000Y-67775000D01*
X79945000Y-67775000D02*
X72475000Y-67775000D01*
X72475000Y-67775000D02*
X72475000Y-84625000D01*
X79085000Y-82665000D02*
X79085000Y-83415000D01*
X79085000Y-83415000D02*
X74785000Y-83415000D01*
X74785000Y-83415000D02*
X74785000Y-82665000D01*
X74785000Y-82665000D02*
X74435000Y-82665000D01*
X74435000Y-82665000D02*
X74435000Y-83165000D01*
X74435000Y-83165000D02*
X73435000Y-83415000D01*
X73435000Y-83415000D02*
X73435000Y-80415000D01*
X73435000Y-80415000D02*
X74435000Y-80665000D01*
X74435000Y-80665000D02*
X74435000Y-81165000D01*
X74435000Y-81165000D02*
X74785000Y-81165000D01*
X74785000Y-81165000D02*
X74785000Y-80415000D01*
X74785000Y-80415000D02*
X79085000Y-80415000D01*
X79085000Y-80415000D02*
X79085000Y-81165000D01*
X79085000Y-78855000D02*
X79085000Y-79605000D01*
X79085000Y-79605000D02*
X74785000Y-79605000D01*
X74785000Y-79605000D02*
X74785000Y-78855000D01*
X74785000Y-78855000D02*
X74435000Y-78855000D01*
X74435000Y-78855000D02*
X74435000Y-79355000D01*
X74435000Y-79355000D02*
X73435000Y-79605000D01*
X73435000Y-79605000D02*
X73435000Y-76605000D01*
X73435000Y-76605000D02*
X74435000Y-76855000D01*
X74435000Y-76855000D02*
X74435000Y-77355000D01*
X74435000Y-77355000D02*
X74785000Y-77355000D01*
X74785000Y-77355000D02*
X74785000Y-76605000D01*
X74785000Y-76605000D02*
X79085000Y-76605000D01*
X79085000Y-76605000D02*
X79085000Y-77355000D01*
X79085000Y-75045000D02*
X79085000Y-75795000D01*
X79085000Y-75795000D02*
X74785000Y-75795000D01*
X74785000Y-75795000D02*
X74785000Y-75045000D01*
X74785000Y-75045000D02*
X74435000Y-75045000D01*
X74435000Y-75045000D02*
X74435000Y-75545000D01*
X74435000Y-75545000D02*
X73435000Y-75795000D01*
X73435000Y-75795000D02*
X73435000Y-72795000D01*
X73435000Y-72795000D02*
X74435000Y-73045000D01*
X74435000Y-73045000D02*
X74435000Y-73545000D01*
X74435000Y-73545000D02*
X74785000Y-73545000D01*
X74785000Y-73545000D02*
X74785000Y-72795000D01*
X74785000Y-72795000D02*
X79085000Y-72795000D01*
X79085000Y-72795000D02*
X79085000Y-73545000D01*
X79085000Y-71235000D02*
X79085000Y-71985000D01*
X79085000Y-71985000D02*
X74785000Y-71985000D01*
X74785000Y-71985000D02*
X74785000Y-71235000D01*
X74785000Y-71235000D02*
X74435000Y-71235000D01*
X74435000Y-71235000D02*
X74435000Y-71735000D01*
X74435000Y-71735000D02*
X73435000Y-71985000D01*
X73435000Y-71985000D02*
X73435000Y-68985000D01*
X73435000Y-68985000D02*
X74435000Y-69235000D01*
X74435000Y-69235000D02*
X74435000Y-69735000D01*
X74435000Y-69735000D02*
X74785000Y-69735000D01*
X74785000Y-69735000D02*
X74785000Y-68985000D01*
X74785000Y-68985000D02*
X79085000Y-68985000D01*
X79085000Y-68985000D02*
X79085000Y-69735000D01*
X73335000Y-85015000D02*
X72085000Y-85015000D01*
X72085000Y-85015000D02*
X72085000Y-83015000D01*
X126432000Y-88706000D02*
X131632000Y-88706000D01*
X126432000Y-86106000D02*
X126432000Y-88706000D01*
X131632000Y-83506000D02*
X131632000Y-88706000D01*
X126432000Y-86106000D02*
X129032000Y-86106000D01*
X129032000Y-86106000D02*
X129032000Y-83506000D01*
X129032000Y-83506000D02*
X131632000Y-83506000D01*
X126432000Y-84836000D02*
X126432000Y-83506000D01*
X126432000Y-83506000D02*
X127762000Y-83506000D01*
X125155000Y-63560000D02*
X125155000Y-60900000D01*
X120015000Y-63560000D02*
X125155000Y-63560000D01*
X120015000Y-60900000D02*
X125155000Y-60900000D01*
X120015000Y-63560000D02*
X120015000Y-60900000D01*
X118745000Y-63560000D02*
X117415000Y-63560000D01*
X117415000Y-63560000D02*
X117415000Y-62230000D01*
X126826000Y-68854000D02*
X132796000Y-68854000D01*
X132796000Y-68854000D02*
X132796000Y-61234000D01*
X132796000Y-61234000D02*
X126826000Y-61234000D01*
X126826000Y-61234000D02*
X126826000Y-68854000D01*
X126836000Y-65544000D02*
X127586000Y-65544000D01*
X127586000Y-65544000D02*
X127586000Y-64544000D01*
X127586000Y-64544000D02*
X126836000Y-64544000D01*
X126836000Y-64544000D02*
X126836000Y-65544000D01*
X126836000Y-68844000D02*
X127586000Y-68844000D01*
X127586000Y-68844000D02*
X127586000Y-67044000D01*
X127586000Y-67044000D02*
X126836000Y-67044000D01*
X126836000Y-67044000D02*
X126836000Y-68844000D01*
X126836000Y-63044000D02*
X127586000Y-63044000D01*
X127586000Y-63044000D02*
X127586000Y-61244000D01*
X127586000Y-61244000D02*
X126836000Y-61244000D01*
X126836000Y-61244000D02*
X126836000Y-63044000D01*
X129086000Y-68844000D02*
X129086000Y-68094000D01*
X129086000Y-68094000D02*
X132036000Y-68094000D01*
X132036000Y-68094000D02*
X132036000Y-65044000D01*
X129086000Y-61244000D02*
X129086000Y-61994000D01*
X129086000Y-61994000D02*
X132036000Y-61994000D01*
X132036000Y-61994000D02*
X132036000Y-65044000D01*
X126536000Y-67894000D02*
X126536000Y-69144000D01*
X126536000Y-69144000D02*
X127786000Y-69144000D01*
X132655000Y-53260000D02*
X132655000Y-47290000D01*
X132655000Y-47290000D02*
X122535000Y-47290000D01*
X122535000Y-47290000D02*
X122535000Y-53260000D01*
X122535000Y-53260000D02*
X132655000Y-53260000D01*
X129345000Y-53250000D02*
X129345000Y-52500000D01*
X129345000Y-52500000D02*
X125845000Y-52500000D01*
X125845000Y-52500000D02*
X125845000Y-53250000D01*
X125845000Y-53250000D02*
X129345000Y-53250000D01*
X132645000Y-53250000D02*
X132645000Y-52500000D01*
X132645000Y-52500000D02*
X130845000Y-52500000D01*
X130845000Y-52500000D02*
X130845000Y-53250000D01*
X130845000Y-53250000D02*
X132645000Y-53250000D01*
X124345000Y-53250000D02*
X124345000Y-52500000D01*
X124345000Y-52500000D02*
X122545000Y-52500000D01*
X122545000Y-52500000D02*
X122545000Y-53250000D01*
X122545000Y-53250000D02*
X124345000Y-53250000D01*
X132645000Y-51000000D02*
X131895000Y-51000000D01*
X131895000Y-51000000D02*
X131895000Y-48050000D01*
X131895000Y-48050000D02*
X127595000Y-48050000D01*
X122545000Y-51000000D02*
X123295000Y-51000000D01*
X123295000Y-51000000D02*
X123295000Y-48050000D01*
X123295000Y-48050000D02*
X127595000Y-48050000D01*
X131695000Y-53550000D02*
X132945000Y-53550000D01*
X132945000Y-53550000D02*
X132945000Y-52300000D01*
X126826000Y-82450000D02*
X132796000Y-82450000D01*
X132796000Y-82450000D02*
X132796000Y-69830000D01*
X132796000Y-69830000D02*
X126826000Y-69830000D01*
X126826000Y-69830000D02*
X126826000Y-82450000D01*
X126836000Y-79140000D02*
X127586000Y-79140000D01*
X127586000Y-79140000D02*
X127586000Y-73140000D01*
X127586000Y-73140000D02*
X126836000Y-73140000D01*
X126836000Y-73140000D02*
X126836000Y-79140000D01*
X126836000Y-82440000D02*
X127586000Y-82440000D01*
X127586000Y-82440000D02*
X127586000Y-80640000D01*
X127586000Y-80640000D02*
X126836000Y-80640000D01*
X126836000Y-80640000D02*
X126836000Y-82440000D01*
X126836000Y-71640000D02*
X127586000Y-71640000D01*
X127586000Y-71640000D02*
X127586000Y-69840000D01*
X127586000Y-69840000D02*
X126836000Y-69840000D01*
X126836000Y-69840000D02*
X126836000Y-71640000D01*
X129086000Y-82440000D02*
X129086000Y-81690000D01*
X129086000Y-81690000D02*
X132036000Y-81690000D01*
X132036000Y-81690000D02*
X132036000Y-76140000D01*
X129086000Y-69840000D02*
X129086000Y-70590000D01*
X129086000Y-70590000D02*
X132036000Y-70590000D01*
X132036000Y-70590000D02*
X132036000Y-76140000D01*
X126536000Y-81490000D02*
X126536000Y-82740000D01*
X126536000Y-82740000D02*
X127786000Y-82740000D01*
X132655000Y-60245000D02*
X132655000Y-54275000D01*
X132655000Y-54275000D02*
X122535000Y-54275000D01*
X122535000Y-54275000D02*
X122535000Y-60245000D01*
X122535000Y-60245000D02*
X132655000Y-60245000D01*
X129345000Y-60235000D02*
X129345000Y-59485000D01*
X129345000Y-59485000D02*
X125845000Y-59485000D01*
X125845000Y-59485000D02*
X125845000Y-60235000D01*
X125845000Y-60235000D02*
X129345000Y-60235000D01*
X132645000Y-60235000D02*
X132645000Y-59485000D01*
X132645000Y-59485000D02*
X130845000Y-59485000D01*
X130845000Y-59485000D02*
X130845000Y-60235000D01*
X130845000Y-60235000D02*
X132645000Y-60235000D01*
X124345000Y-60235000D02*
X124345000Y-59485000D01*
X124345000Y-59485000D02*
X122545000Y-59485000D01*
X122545000Y-59485000D02*
X122545000Y-60235000D01*
X122545000Y-60235000D02*
X124345000Y-60235000D01*
X132645000Y-57985000D02*
X131895000Y-57985000D01*
X131895000Y-57985000D02*
X131895000Y-55035000D01*
X131895000Y-55035000D02*
X127595000Y-55035000D01*
X122545000Y-57985000D02*
X123295000Y-57985000D01*
X123295000Y-57985000D02*
X123295000Y-55035000D01*
X123295000Y-55035000D02*
X127595000Y-55035000D01*
X131695000Y-60535000D02*
X132945000Y-60535000D01*
X132945000Y-60535000D02*
X132945000Y-59285000D01*
X125833000Y-64500000D02*
X125833000Y-92980000D01*
X125833000Y-92980000D02*
X116483000Y-92980000D01*
X116483000Y-92980000D02*
X116483000Y-64500000D01*
X116483000Y-64500000D02*
X125833000Y-64500000D01*
X116233000Y-64250000D02*
X116233000Y-66790000D01*
X116233000Y-64250000D02*
X118773000Y-64250000D01*
X80705000Y-85665000D02*
X80705000Y-86995000D01*
X79375000Y-85665000D02*
X80705000Y-85665000D01*
X80705000Y-88265000D02*
X80705000Y-90865000D01*
X78105000Y-88265000D02*
X80705000Y-88265000D01*
X78105000Y-85665000D02*
X78105000Y-88265000D01*
X80705000Y-90865000D02*
X72965000Y-90865000D01*
X78105000Y-85665000D02*
X72965000Y-85665000D01*
X72965000Y-85665000D02*
X72965000Y-90865000D01*
D10*
X127060761Y-93797380D02*
X126727428Y-93321190D01*
X126489333Y-93797380D02*
X126489333Y-92797380D01*
X126870285Y-92797380D01*
X126965523Y-92845000D01*
X127013142Y-92892619D01*
X127060761Y-92987857D01*
X127060761Y-93130714D01*
X127013142Y-93225952D01*
X126965523Y-93273571D01*
X126870285Y-93321190D01*
X126489333Y-93321190D01*
X127346476Y-92797380D02*
X127679809Y-93797380D01*
X128013142Y-92797380D01*
X128870285Y-93797380D02*
X128298857Y-93797380D01*
X128584571Y-93797380D02*
X128584571Y-92797380D01*
X128489333Y-92940238D01*
X128394095Y-93035476D01*
X128298857Y-93083095D01*
X80470476Y-77049380D02*
X80470476Y-77763666D01*
X80422857Y-77906523D01*
X80327619Y-78001761D01*
X80184761Y-78049380D01*
X80089523Y-78049380D01*
X81470476Y-78049380D02*
X80899047Y-78049380D01*
X81184761Y-78049380D02*
X81184761Y-77049380D01*
X81089523Y-77192238D01*
X80994285Y-77287476D01*
X80899047Y-77335095D01*
X82327619Y-77382714D02*
X82327619Y-78049380D01*
X82089523Y-77001761D02*
X81851428Y-77716047D01*
X82470476Y-77716047D01*
X80605380Y-60372523D02*
X81319666Y-60372523D01*
X81462523Y-60420142D01*
X81557761Y-60515380D01*
X81605380Y-60658238D01*
X81605380Y-60753476D01*
X81605380Y-59372523D02*
X81605380Y-59943952D01*
X81605380Y-59658238D02*
X80605380Y-59658238D01*
X80748238Y-59753476D01*
X80843476Y-59848714D01*
X80891095Y-59943952D01*
X80605380Y-59039190D02*
X80605380Y-58420142D01*
X80986333Y-58753476D01*
X80986333Y-58610619D01*
X81033952Y-58515380D01*
X81081571Y-58467761D01*
X81176809Y-58420142D01*
X81414904Y-58420142D01*
X81510142Y-58467761D01*
X81557761Y-58515380D01*
X81605380Y-58610619D01*
X81605380Y-58896333D01*
X81557761Y-58991571D01*
X81510142Y-59039190D01*
X70837380Y-52884523D02*
X71551666Y-52884523D01*
X71694523Y-52932142D01*
X71789761Y-53027380D01*
X71837380Y-53170238D01*
X71837380Y-53265476D01*
X71837380Y-51884523D02*
X71837380Y-52455952D01*
X71837380Y-52170238D02*
X70837380Y-52170238D01*
X70980238Y-52265476D01*
X71075476Y-52360714D01*
X71123095Y-52455952D01*
X70932619Y-51503571D02*
X70885000Y-51455952D01*
X70837380Y-51360714D01*
X70837380Y-51122619D01*
X70885000Y-51027380D01*
X70932619Y-50979761D01*
X71027857Y-50932142D01*
X71123095Y-50932142D01*
X71265952Y-50979761D01*
X71837380Y-51551190D01*
X71837380Y-50932142D01*
X70837380Y-63044523D02*
X71551666Y-63044523D01*
X71694523Y-63092142D01*
X71789761Y-63187380D01*
X71837380Y-63330238D01*
X71837380Y-63425476D01*
X71837380Y-62044523D02*
X71837380Y-62615952D01*
X71837380Y-62330238D02*
X70837380Y-62330238D01*
X70980238Y-62425476D01*
X71075476Y-62520714D01*
X71123095Y-62615952D01*
X71837380Y-61092142D02*
X71837380Y-61663571D01*
X71837380Y-61377857D02*
X70837380Y-61377857D01*
X70980238Y-61473095D01*
X71075476Y-61568333D01*
X71123095Y-61663571D01*
X70837380Y-77004523D02*
X71551666Y-77004523D01*
X71694523Y-77052142D01*
X71789761Y-77147380D01*
X71837380Y-77290238D01*
X71837380Y-77385476D01*
X71837380Y-76004523D02*
X71837380Y-76575952D01*
X71837380Y-76290238D02*
X70837380Y-76290238D01*
X70980238Y-76385476D01*
X71075476Y-76480714D01*
X71123095Y-76575952D01*
X70837380Y-75385476D02*
X70837380Y-75290238D01*
X70885000Y-75195000D01*
X70932619Y-75147380D01*
X71027857Y-75099761D01*
X71218333Y-75052142D01*
X71456428Y-75052142D01*
X71646904Y-75099761D01*
X71742142Y-75147380D01*
X71789761Y-75195000D01*
X71837380Y-75290238D01*
X71837380Y-75385476D01*
X71789761Y-75480714D01*
X71742142Y-75528333D01*
X71646904Y-75575952D01*
X71456428Y-75623571D01*
X71218333Y-75623571D01*
X71027857Y-75575952D01*
X70932619Y-75528333D01*
X70885000Y-75480714D01*
X70837380Y-75385476D01*
X128571666Y-88987380D02*
X128571666Y-89701666D01*
X128524047Y-89844523D01*
X128428809Y-89939761D01*
X128285952Y-89987380D01*
X128190714Y-89987380D01*
X129190714Y-89415952D02*
X129095476Y-89368333D01*
X129047857Y-89320714D01*
X129000238Y-89225476D01*
X129000238Y-89177857D01*
X129047857Y-89082619D01*
X129095476Y-89035000D01*
X129190714Y-88987380D01*
X129381190Y-88987380D01*
X129476428Y-89035000D01*
X129524047Y-89082619D01*
X129571666Y-89177857D01*
X129571666Y-89225476D01*
X129524047Y-89320714D01*
X129476428Y-89368333D01*
X129381190Y-89415952D01*
X129190714Y-89415952D01*
X129095476Y-89463571D01*
X129047857Y-89511190D01*
X129000238Y-89606428D01*
X129000238Y-89796904D01*
X129047857Y-89892142D01*
X129095476Y-89939761D01*
X129190714Y-89987380D01*
X129381190Y-89987380D01*
X129476428Y-89939761D01*
X129524047Y-89892142D01*
X129571666Y-89796904D01*
X129571666Y-89606428D01*
X129524047Y-89511190D01*
X129476428Y-89463571D01*
X129381190Y-89415952D01*
X116379666Y-61047380D02*
X116379666Y-61761666D01*
X116332047Y-61904523D01*
X116236809Y-61999761D01*
X116093952Y-62047380D01*
X115998714Y-62047380D01*
X116760619Y-61047380D02*
X117427285Y-61047380D01*
X116998714Y-62047380D01*
X125650666Y-63333380D02*
X125650666Y-64047666D01*
X125603047Y-64190523D01*
X125507809Y-64285761D01*
X125364952Y-64333380D01*
X125269714Y-64333380D01*
X126555428Y-63333380D02*
X126364952Y-63333380D01*
X126269714Y-63381000D01*
X126222095Y-63428619D01*
X126126857Y-63571476D01*
X126079238Y-63761952D01*
X126079238Y-64142904D01*
X126126857Y-64238142D01*
X126174476Y-64285761D01*
X126269714Y-64333380D01*
X126460190Y-64333380D01*
X126555428Y-64285761D01*
X126603047Y-64238142D01*
X126650666Y-64142904D01*
X126650666Y-63904809D01*
X126603047Y-63809571D01*
X126555428Y-63761952D01*
X126460190Y-63714333D01*
X126269714Y-63714333D01*
X126174476Y-63761952D01*
X126126857Y-63809571D01*
X126079238Y-63904809D01*
X122448666Y-53464666D02*
X122448666Y-53964666D01*
X122415333Y-54064666D01*
X122348666Y-54131333D01*
X122248666Y-54164666D01*
X122182000Y-54164666D01*
X123115333Y-53464666D02*
X122782000Y-53464666D01*
X122748666Y-53798000D01*
X122782000Y-53764666D01*
X122848666Y-53731333D01*
X123015333Y-53731333D01*
X123082000Y-53764666D01*
X123115333Y-53798000D01*
X123148666Y-53864666D01*
X123148666Y-54031333D01*
X123115333Y-54098000D01*
X123082000Y-54131333D01*
X123015333Y-54164666D01*
X122848666Y-54164666D01*
X122782000Y-54131333D01*
X122748666Y-54098000D01*
X132127666Y-82764380D02*
X132127666Y-83478666D01*
X132080047Y-83621523D01*
X131984809Y-83716761D01*
X131841952Y-83764380D01*
X131746714Y-83764380D01*
X133032428Y-83097714D02*
X133032428Y-83764380D01*
X132794333Y-82716761D02*
X132556238Y-83431047D01*
X133175285Y-83431047D01*
X125750666Y-60449666D02*
X125750666Y-60949666D01*
X125717333Y-61049666D01*
X125650666Y-61116333D01*
X125550666Y-61149666D01*
X125484000Y-61149666D01*
X126017333Y-60449666D02*
X126450666Y-60449666D01*
X126217333Y-60716333D01*
X126317333Y-60716333D01*
X126384000Y-60749666D01*
X126417333Y-60783000D01*
X126450666Y-60849666D01*
X126450666Y-61016333D01*
X126417333Y-61083000D01*
X126384000Y-61116333D01*
X126317333Y-61149666D01*
X126117333Y-61149666D01*
X126050666Y-61116333D01*
X126017333Y-61083000D01*
X116379666Y-63079380D02*
X116379666Y-63793666D01*
X116332047Y-63936523D01*
X116236809Y-64031761D01*
X116093952Y-64079380D01*
X115998714Y-64079380D01*
X116808238Y-63174619D02*
X116855857Y-63127000D01*
X116951095Y-63079380D01*
X117189190Y-63079380D01*
X117284428Y-63127000D01*
X117332047Y-63174619D01*
X117379666Y-63269857D01*
X117379666Y-63365095D01*
X117332047Y-63507952D01*
X116760619Y-64079380D01*
X117379666Y-64079380D01*
X81581666Y-88987380D02*
X81581666Y-89701666D01*
X81534047Y-89844523D01*
X81438809Y-89939761D01*
X81295952Y-89987380D01*
X81200714Y-89987380D01*
X82581666Y-89987380D02*
X82010238Y-89987380D01*
X82295952Y-89987380D02*
X82295952Y-88987380D01*
X82200714Y-89130238D01*
X82105476Y-89225476D01*
X82010238Y-89273095D01*
M02*
