M48
; DRILL file {KiCad (5.1.0-1252-g029b624e9)} date 23.07.2019 23:33:37
; FORMAT={-:-/ absolute / metric / decimal}
; #@! TF.CreationDate,2019-07-23T23:33:37+03:00
; #@! TF.GenerationSoftware,Kicad,Pcbnew,(5.1.0-1252-g029b624e9)
; #@! TF.FileFunction,Plated,1,2,PTH
FMAT,2
METRIC
T1C0.400
T2C0.950
T3C1.000
T4C1.016
T5C1.200
T6C1.300
%
G90
G05
T1
X83.666Y-85.8
X83.82Y-91.694
X83.91Y-99.134
X86.18Y-93.927
X88.392Y-99.06
X89.408Y-64.77
X89.408Y-69.85
X89.408Y-74.422
X90.17Y-84.328
X90.2Y-49.784
X90.371Y-92.911
X91.186Y-78.486
X92.022Y-97.229
X92.329Y-60.274
X93.345Y-101.092
X95.25Y-96.864
X95.631Y-67.117
X95.631Y-68.707
X95.885Y-93.98
X96.139Y-63.881
X96.266Y-65.278
X96.266Y-79.756
X96.266Y-84.836
X96.393Y-72.882
X98.044Y-53.848
X99.06Y-89.916
X99.06Y-93.472
X99.06Y-96.774
X99.441Y-61.595
X99.568Y-82.296
X101.346Y-71.374
X101.346Y-73.533
X101.473Y-75.692
X101.6Y-56.769
X102.011Y-62.865
X102.2Y-47.2
X102.235Y-52.883
X102.235Y-57.815
X102.489Y-61.311
X102.87Y-55.499
X102.87Y-79.756
X102.87Y-84.836
X103.124Y-66.802
X104.14Y-75.438
X104.722Y-61.214
X105.156Y-76.454
X105.283Y-70.485
X105.918Y-82.042
X105.918Y-89.916
X105.918Y-93.726
X105.918Y-96.774
X106.172Y-60.198
X107.0Y-53.8
X107.569Y-64.516
X108.204Y-68.25
X108.966Y-84.836
X109.22Y-100.965
X109.728Y-70.104
X109.855Y-60.553
X110.236Y-63.665
X110.744Y-66.65
X112.395Y-77.47
X112.776Y-66.65
X113.03Y-89.916
X113.03Y-93.726
X113.03Y-96.774
X114.046Y-49.657
X116.332Y-77.47
X116.459Y-65.786
X117.348Y-70.866
X117.6Y-83.5
X117.6Y-91.0
X117.602Y-81.28
X122.957Y-92.71
X131.445Y-69.342
X131.826Y-81.915
T2
X129.286Y-72.39
X129.286Y-74.89
X129.286Y-77.39
X129.286Y-79.89
X125.095Y-57.785
X127.595Y-57.785
X130.095Y-57.785
X125.095Y-50.8
X127.595Y-50.8
X130.095Y-50.8
T3
X84.455Y-71.795
X84.455Y-74.295
X118.745Y-62.23
X121.285Y-62.23
X123.825Y-62.23
X98.425Y-49.2
X100.965Y-49.2
X103.505Y-49.2
X106.045Y-49.2
X74.295Y-86.995
X74.295Y-89.535
X76.835Y-86.995
X76.835Y-89.535
X79.375Y-86.995
X79.375Y-89.535
X127.762Y-84.836
X84.455Y-63.54
X84.455Y-66.04
X129.286Y-63.794
X129.286Y-66.294
X127.762Y-87.376
X130.302Y-84.836
X130.302Y-87.376
T4
X119.888Y-69.85
X119.888Y-72.39
X119.888Y-74.93
X119.888Y-77.47
X119.888Y-80.01
X119.888Y-82.55
X119.888Y-85.09
X119.888Y-87.63
X122.428Y-69.85
X122.428Y-72.39
X122.428Y-74.93
X122.428Y-77.47
X122.428Y-80.01
X122.428Y-82.55
X122.428Y-85.09
X122.428Y-87.63
T5
X76.835Y-70.485
X76.835Y-74.295
X76.835Y-78.105
X76.835Y-81.915
X76.835Y-60.325
X76.835Y-64.135
X76.835Y-50.165
X76.835Y-53.975
T6
X81.381Y-94.109
X81.381Y-97.109
T0
M30
